<?xml version="1.0" encoding="utf-8"?>
<!-- Generator: Adobe Illustrator 24.0.1, SVG Export Plug-In . SVG Version: 6.00 Build 0)  -->
<svg version="1.1" id="Layer_1" xmlns="http://www.w3.org/2000/svg" xmlns:xlink="http://www.w3.org/1999/xlink" x="0px" y="0px"
	 viewBox="0 0 1006.6 574.1" style="enable-background:new 0 0 1006.6 574.1;" xml:space="preserve">
<style type="text/css">
	.st0{fill:#FF99FF;stroke:#541E5E;stroke-width:3;stroke-miterlimit:10;}
</style>
<g>
	<g id="XMLID_1_">
		<g>
			<path class="st0" d="M329.5,301.2c0.4,0.2,0.6,0.7,1.2,1.5c-7.6-0.8-14.1-3.5-20.8-5.8c-21.7-7.6-42.9-16.3-62.1-29.3
				c-22.4-15.1-40.2-34.5-52.6-58.4c-15.7-30.4-23-62.6-18.8-97c0.1-1.2,0.3-2.3,0.4-3.5c0.4-5.8,2.3-7.4,8-6.5
				c9.2,1.5,18.3,3.5,27,6.9c18.9,7.4,36.7,16.6,52.5,29.4c5.2,4.2,10,9,15,15.5c-8.7-3.6-16.2-6.8-23.7-9.8
				c-15.5-6.2-31.6-10.1-48.1-12.9c-3.7-0.6-5,0.1-4.8,4.1c1.3,38.9,14.7,73.2,40.7,102.1c20.2,22.5,45.6,38.6,71.2,54.4
				C319.6,295.2,324.6,298.2,329.5,301.2z"/>
			<path class="st0" d="M247.3,285.1c0.2,0.1,0.2,0.5,0.4,0.9c-1.4,1.3-3.1,0.9-4.7,0.9c-20.9,0.3-41.6-0.7-61.9-5.9
				c-27-7-48.4-31.1-46.5-62.2c0.7-12,1.2-23.9,3.3-35.7c0.3-1.6-0.2-3.6,1.9-4.2c2.3-0.6,3.2,1.2,4.3,2.7
				c16.9,22.9,34.8,45.1,53.6,66.5c13.2,15,28.8,26.7,46.7,35.4C245.3,284,246.3,284.5,247.3,285.1z"/>
			<path class="st0" d="M239.3,468.6c1.1,0,2.2,0.3,4.1,0.6c-2.9,2.4-5.8,3.2-8.7,3.6c-37.1,6.3-74.2,8.5-110.7-3.5
				c-17.8-5.9-33-16.3-48.1-27.2C65,434.3,56,424.6,48.2,413.8c-2-2.8-2.3-4.4,1.5-6.2c17.6-8.5,35.9-15.1,55.1-18.9
				c1.3-0.3,2.9-0.8,3.6,0.7c0.7,1.6-1.1,2.2-2,3c-7.5,6.1-15,12.1-22.5,18.2c-1.7,1.4-3.1,2.4-0.4,4.5c26.4,21,55.4,36.9,88.9,43.5
				C194.4,463.1,216.6,467.6,239.3,468.6z"/>
			<path class="st0" d="M458.3,410.2c-3.1,0-4.8-1.5-6.5-2.7c-16.3-11.9-34.2-20.7-52.6-28.5c-18-7.6-37.1-11.7-56.5-14.1
				c-32.8-4.1-65.7-5.7-98.6-8.2c-18.9-1.5-36.7-7.6-54.2-14.7c-14-5.7-27-12.9-39.5-21.2c-1.4-0.9-3-3.1-4.6-1.8
				c-1.9,1.5-0.3,3.8,0.5,5.5c7.2,16.5,18.1,30.6,28,45.5c21.7,32.5,51.4,54.5,88.1,67.4c16,5.6,32.7,7.8,49.5,8.9
				c13.6,0.9,27.2,2,40.8,1c-34.5,9.5-68.9,12.2-104.3,4.6c-35.8-7.6-65.5-25.3-90.6-50.7c-33-33.3-49.4-74-50.8-120.9
				c-0.2-6-0.4-12,0.3-18c0.1-1,0.5-1.9,1-3.7c5.6,5.9,11.1,11,16.6,16.2c18.5,17.1,40.6,25.6,65.5,27.2c31.6,2.1,63.2,3.9,94.5,8.9
				c24.3,3.9,48.7,7.5,72.4,14.6c14.7,4.4,27.1,12.9,39,21.9c21,16,38.7,35.5,56.1,55.3C454.2,405,456,407.4,458.3,410.2z"/>
			<path class="st0" d="M473.7,424.6c-3.1,4-6.4,5.8-9.3,8s-5.9,4.3-9.1,6.2c-20.8,12.6-41.7,25-63.4,36
				c-13,6.6-26.7,10.2-41.1,11.6c-2.5,0.2-5,0.5-7.5,0.8c-1.1,0.1-2.6-0.1-2.9,1.4c-0.3,1.1,0.9,1.7,1.7,2.3
				c10.6,8.3,22.2,14.4,35.2,18.4c28.9,9,52.7-1.7,74.4-19.2c15.1-12.2,26.9-27.7,38-43.5c0.6-0.9,1.4-1.8,2.7-3.6
				c2.9,16.8-0.7,31.2-9.5,44.3c-11.6,17.5-25.2,33-43.6,43.9c-13,7.8-27.4,11.2-41.9,13.9c-31.2,5.8-59.3-3.5-85.7-19.2
				c-9.5-5.6-17-13.5-22.4-23.1c-4.3-7.7-8-15.7-12-23.6c-1.8-3.5-0.8-4.9,3-4.9c9.5,0,19,0,28.5-0.3c27.4-0.7,53.7-7.2,79.6-15.5
				c27.6-8.9,54.5-19.7,80.8-31.9C470.4,426.1,471.4,425.6,473.7,424.6z"/>
			<path class="st0" d="M728.8,473c1.8,2.5-1,5.4-2.5,7.5c-13,18.4-25.7,37.3-45,49.6c-18.9,12.1-39.9,18.3-62.6,17.3
				c-9.5-0.4-19-0.2-28.4-1.9c-23.5-4.3-42-17-57.9-34.1c-10.2-10.9-17.4-23.5-21.2-38c-2.7-10.5-0.9-20.8,1.2-31.6
				c2.5,0.9,4.4,2.4,5.2,4.3c6.1,14.2,17.8,23.9,27.9,34.9c17.2,18.8,38.4,26.3,63.6,24.9c15.8-0.9,31.2-2.7,45.3-10.5
				c1.4-0.8,3.8-1.1,3.5-3c-0.3-1.8-2.6-1.8-4.2-2.1c-31.1-5.7-58.6-19.3-84.3-37.2c-11.5-8-22.5-16.6-32.8-26.2
				c-0.8-0.8-2-1.3-1.8-3.6c5.6,2,11,3.8,16.3,5.9c25,10.1,49.4,21.7,74.9,30.6c30.8,10.8,62.3,17.2,95.2,12.6
				C723.8,472,727.4,471.1,728.8,473z"/>
			<path class="st0" d="M765.9,470.9c-0.9-0.3-1.8-0.6-2.7-1c0-0.5,0-0.9,0-1.3c6.8-0.5,13.5-1.1,20.3-1.4
				c29.3-1.6,57.8-7.3,85.5-16.8c15-5.1,27.5-14.9,40.7-23.3c5.8-3.7,10.7-8.5,15.8-13c3-2.7,2.8-4.8-0.3-7.2
				c-7.7-6.1-15.3-12.4-22.9-18.6c-1.3-1-2.8-1.9-3.6-3.9c1.8-0.7,3.4-0.1,5.1,0.4c18.7,5.5,35.6,15,53.2,22.9
				c2.7,1.2,4.2,2.6,1.7,5.6c-10.7,13-21.2,26.1-34.2,37c-22.3,18.6-48.6,27.1-76.9,28.6C820.1,480.3,792.6,479.1,765.9,470.9z"/>
			<path class="st0" d="M911.3,251.4c2.3,0.8,1.3,3.8,1.2,5.9c-1.8,38.6-11.1,74.9-32.1,107.8c-17.1,26.8-38.4,49.6-65.3,66.4
				c-25.3,15.7-52.8,24.6-83,25.8c-18.5,0.7-36.6,0-54.6-4.1c-0.8-0.2-1.6-0.4-2.4-0.6c-0.3-0.1-0.4-0.4-1-1
				c9.8-1.1,19.2-2.3,28.7-3.1c33.6-2.9,63.7-15.2,91-34.5c11.2-7.9,19.8-18.7,28.4-29.4c12.1-15,21.2-31.9,30.5-48.6
				c1.9-3.5,4.5-6.6,5.5-10.6c0.3-1,0.7-2-0.4-2.7c-0.9-0.6-1.5,0.4-2.1,0.8c-26.3,17.7-56,26.3-86.8,32.7
				c-30.3,6.3-61,8.2-91.8,9.4c-40.4,1.6-77.9,13.1-112.8,33.6c-4.1,2.4-8.3,4.7-12.4,7.1c-0.3-0.3-0.6-0.7-0.9-1
				c8.1-10.5,16.6-20.6,26.1-30c21.3-20.9,47.3-34.3,73.7-47.2c19.6-9.6,40.8-12.8,62.1-16c31.4-4.7,63.1-4.5,94.5-8.1
				c17-1.9,33.8-5,49.3-12.1c19.2-8.8,36.3-20.9,50.4-36.9C908.5,253.7,909.3,250.6,911.3,251.4z"/>
			<path class="st0" d="M881.6,180.4c0.2,11.4,2.1,22.8,0,34.4c-1.5,8-0.5,16.3-1.6,24.4c-2.6,19.4-14.5,31.2-31,39.8
				c-17.9,9.2-37,9.9-56.4,9.4c-9.5-0.2-19-0.1-28.4-0.1c-1.6,0-3.3,0.6-5-0.7c4.4-5.7,11.4-7.2,17.2-10.3
				c19.9-10.7,38.8-22.5,54.4-39.1c17.2-18.2,32.1-38.1,46.2-58.7c0.8-1.1,1.1-3.3,2.9-2.8C881.7,177,881.6,179,881.6,180.4z"/>
			<path class="st0" d="M674.8,304.6c9.8-6.3,20.8-10.1,30.4-16.3c21.4-13.8,43.5-26.6,62-44.3c18.3-17.4,31.4-38.5,38.3-62.8
				c3.7-12.8,5.6-26,5.5-39.5c0-3.9-1.3-4.9-5.2-5.1c-20.5-1.1-39.5,4.3-58.3,11.4c-1.5,0.6-2.8,1.8-5,1
				c7.9-8.7,17.9-13.9,28.1-18.7c18.6-8.8,37.3-17.6,56.7-24.7c1.7-0.6,3.4-1.3,5.2-1.8c8-2.4,8-2.4,9.3,6.3
				c6.9,46.3-4.2,87.1-36.8,121.4c-20,21.1-43.8,36.6-69.6,49.5c-19.1,9.5-39,17-59.3,23.5C675.7,304.6,675.2,304.5,674.8,304.6z"/>
			<path class="st0" d="M616.9,326c-0.4,0.3-0.9,0.5-1.3,0.7c-0.3,0.1-0.6-0.1-1.8-0.4c6.9-9.1,13.5-17.9,20.3-26.7
				c14.6-18.9,28.5-38.3,37.9-60.3c7.3-17.3,12-35.4,13.6-54c1.6-17.7-2.6-34.8-10.1-50.9c-8.2-17.7-18-34.6-29.7-50.2
				c-1.9-2.5-4.1-4.8-6.2-7.2c-6.6-7.3-6.7-7.4-15.5-2.7c-11.8,6.2-23.3,12.8-35.3,20.7c3.2-10.3,8.9-17.8,14.2-25.3
				c9.8-13.8,19.9-27.5,32-39.4c2.4-2.4,4.6-2.7,6.9-0.8c12.2,9.8,25.8,18.1,34.1,31.9c12.7,21.2,23.8,43.1,29.5,67.4
				c3.5,15,5.9,30.1,6.2,45.4c0.5,20.5-4.2,40.1-12.3,58.7C682,272.9,653.8,303.4,616.9,326z"/>
			<path class="st0" d="M633.8,205.5c4.6,27.8,0.3,54.9-12.7,80.1c-14.8,28.9-32.5,55.8-54,80.2c-6.4,7.3-13.7,13.5-21.2,19.6
				c2.8-5,6.9-9,10.3-13.5c9-12.1,14.8-26,21.8-39.2c14.3-27.1,18.8-56.3,18.1-86.5c-0.3-14.1-3.9-27.6-9.7-40.5
				c-9.8-21.8-23.6-40.9-39.4-58.7c-11-12.3-22.6-24-34.6-35.3c-2.8-2.6-4.8-2.7-7.5-0.2c-18.3,16.7-37.8,32.3-54.2,50.9
				c-24.8,28.1-39.9,60.7-39.3,98.9c0.4,28.7,8.1,55.6,22.2,81c10.5,18.8,23.3,35.6,37.9,51.2c0.3,0.4,0.6,0.8,0.9,1.2
				c-19.5-13.3-35.2-30.3-48.3-49.7c-8.3-12.3-17.8-23.8-24.4-37.1c-7-14.1-16.2-27.4-18.8-43.3c-3.2-19.9-5.5-40-1.9-60.1
				c2.3-13.1,7.8-25.3,14.7-36.4c12.1-19.5,25.1-38.5,42-54.4c16.6-15.6,34.6-29.6,52.6-43.6c5.6-4.4,11.5-8.5,17-13.1
				c2.3-1.9,3.9-1.8,6.2-0.4c13,7.8,25.4,16.5,37,26.3C566,97.8,584.2,112,598,130.6C614.6,153.1,629.1,177.3,633.8,205.5z"/>
			<path class="st0" d="M425.3,95c-11-4.1-20.5-10.5-30.5-16.1c-14.3-7.9-10-9.1-21.7,3c-20.5,21.3-35.2,46.2-44,74.1
				c-12.1,38.7-5.2,75,18,108.2c8.4,12,17.3,23.6,25.2,36c4.6,7.1,10.4,13.4,15.5,20.2c1.1,1.5,2.7,2.9,2.7,5.6
				c-7-3.1-12.4-8.1-18-12.5c-21.1-16.9-39.1-36.4-51.8-60.7c-7.6-14.7-15-29.2-18-45.7c-4.2-23-3.1-45.6,2.9-68.1
				c10.1-37.9,27.9-71.7,53.4-101.5c3-3.5,6.3-6.9,10-9.7c1.3-1,2.2-1.8,3.7-0.3C393.8,47.2,411.7,69.4,425.3,95z"/>
		</g>
	</g>
</g>
</svg>
